<svg xmlns="http://www.w3.org/2000/svg" viewBox="0 0 32 32">
  <defs>
    <linearGradient id="rg" x1="0%" y1="0%" x2="100%" y2="100%">
      <stop offset="0%" stop-color="#CC0000"/>
      <stop offset="100%" stop-color="#EE0000"/>
    </linearGradient>
  </defs>
  <!-- Outer red swirl ring -->
  <circle cx="16" cy="14" r="13" fill="none" stroke="url(#rg)" stroke-width="3.5"/>
  <path d="M 27 7 C 29 9, 30 12, 29.5 15" stroke="url(#rg)" stroke-width="2" fill="none" stroke-linecap="round"/>
  <path d="M 5 21 C 3 19, 2 16, 2.5 13" stroke="url(#rg)" stroke-width="2" fill="none" stroke-linecap="round"/>
  <!-- Teal gear (simplified) -->
  <circle cx="16" cy="14" r="7" fill="#2B6F7F"/>
  <!-- Gear teeth -->
  <rect x="14.5" y="5.5" width="3" height="3" rx="0.5" fill="#2B6F7F"/>
  <rect x="14.5" y="19.5" width="3" height="3" rx="0.5" fill="#2B6F7F"/>
  <rect x="7.5" y="12.5" width="3" height="3" rx="0.5" fill="#2B6F7F"/>
  <rect x="21.5" y="12.5" width="3" height="3" rx="0.5" fill="#2B6F7F"/>
  <rect x="9" y="8" width="2.5" height="2.5" rx="0.5" fill="#2B6F7F" transform="rotate(45 10.25 9.25)"/>
  <rect x="20.5" y="8" width="2.5" height="2.5" rx="0.5" fill="#2B6F7F" transform="rotate(45 21.75 9.25)"/>
  <rect x="9" y="17.5" width="2.5" height="2.5" rx="0.5" fill="#2B6F7F" transform="rotate(45 10.25 18.75)"/>
  <rect x="20.5" y="17.5" width="2.5" height="2.5" rx="0.5" fill="#2B6F7F" transform="rotate(45 21.75 18.75)"/>
  <!-- Kubernetes helm wheel -->
  <circle cx="16" cy="14" r="4.5" fill="none" stroke="#1A4A56" stroke-width="1"/>
  <circle cx="16" cy="14" r="1.2" fill="#1A4A56"/>
  <line x1="16" y1="9.5" x2="16" y2="14" stroke="#1A4A56" stroke-width="0.8"/>
  <line x1="16" y1="14" x2="16" y2="18.5" stroke="#1A4A56" stroke-width="0.8"/>
  <line x1="12.1" y1="11.7" x2="16" y2="14" stroke="#1A4A56" stroke-width="0.8"/>
  <line x1="16" y1="14" x2="19.9" y2="16.3" stroke="#1A4A56" stroke-width="0.8"/>
  <line x1="19.9" y1="11.7" x2="16" y2="14" stroke="#1A4A56" stroke-width="0.8"/>
  <line x1="16" y1="14" x2="12.1" y2="16.3" stroke="#1A4A56" stroke-width="0.8"/>
  <!-- Orange arrow (Camel route) -->
  <path d="M 11 15 Q 14 11, 19 12 L 21 10" stroke="#E8841A" stroke-width="1.5" fill="none" stroke-linecap="round"/>
  <polygon points="22,9 21,11.5 19.5,10" fill="#E8841A"/>
  <!-- Small camel silhouette -->
  <path d="M 19.5 12.5 C 20 11.5, 21 11.8, 20.5 12.8" fill="#E8841A" stroke="none"/>
</svg>
